<?xml version="1.0" encoding="UTF-8"?>
<svg width="24" height="24" viewBox="0 0 24 24" fill="none" xmlns="http://www.w3.org/2000/svg">
  <path d="M12 4C12 4 6 8 6 12C6 15.3137 8.68629 18 12 18C15.3137 18 18 15.3137 18 12C18 8 12 4 12 4" stroke="white" stroke-width="2" stroke-linecap="round" stroke-linejoin="round" fill="none"/>
  <path d="M12 8C12 8 9 10 9 12C9 13.1046 9.89543 14 11 14C12.1046 14 13 13.1046 13 12C13 10 12 8 12 8" stroke="white" stroke-width="2" stroke-linecap="round" stroke-linejoin="round" fill="none"/>
  <path d="M12 12C12 12 10 13 10 14C10 14.5523 10.4477 15 11 15C11.5523 15 12 14.5523 12 14C12 13 12 12 12 12" stroke="white" stroke-width="2" stroke-linecap="round" stroke-linejoin="round" fill="none"/>
</svg>